<?xml version="1.0" encoding="utf-8"?>
<svg version="1.1" id="Layer_1" x="0px" y="0px" viewBox="0 0 595.3 841.9" style="enable-background:new 0 0 595.3 841.9;" xmlns="http://www.w3.org/2000/svg">
  <style type="text/css">
	.st0{fill:#25316A;}
	.st1{fill:url(#SVGID_1_);}
	.st2{fill:none;}
	.st3{enable-background:new    ;}
	.st4{fill:#5B5C87;}
</style>
  <g>
    <path class="st0" d="M211.2,482.3l-19.3-34.5h-11.1v34.5h-24.5v-97.5H199c9.7,0,17.2,2.1,23.4,6.6c7.5,5.5,11.5,14.5,11.5,24.2 c0,11.9-5.7,23.5-18.5,28.7l22.4,38L211.2,482.3L211.2,482.3z M195.9,403.9h-15.2v25.8h15.2c8.8,0,14.2-5.1,14.2-13 C210.1,407.7,204.1,403.9,195.9,403.9z"/>
    <path class="st0" d="M249,482.3v-97.5h24.5v97.5H249z"/>
    <path class="st0" d="M334.7,448.5h-20.2v33.8h-24.3v-97.5h44c21.6,0,34.2,13.3,34.2,31.3C368.3,432.1,358.5,448.5,334.7,448.5z M330.2,403.9h-15.7v25.8h15.7c8.3,0,14.2-4.4,14.2-13.1C344.4,408.1,338.9,403.9,330.2,403.9z"/>
    <path class="st0" d="M380.6,482.3v-97.5h71.8v19.8H405v18.6h39.9v19.7H405v19.4h47.7v20H380.6z"/>
    <path class="st0" d="M224.5,610.9l-42.6-64h-0.3v64h-25.2V502h26.4l41.4,61.6h0.3V502h25.4v108.9H224.5z"/>
    <path class="st0" d="M312,612.7c-24,0-46.4-12.1-46.4-39.3v-33.2c0-26.7,21.7-40.2,45.7-40.2c21.2,0,44.3,10.7,44.3,35.9v5.2h-25.7 v-2.6c0-11.3-9.6-16.2-18-16.2c-9.6,0-18.9,5-18.9,17.4v33c0,11.2,8.1,17.6,19.2,17.6c8.4,0,17.7-4.7,17.7-16.2v-2.6h25.7v5.3 C355.6,602,333.1,612.7,312,612.7z"/>
    <path class="st0" d="M414.5,612.7c-24,0-46.4-12.1-46.4-39.3v-33.2c0-26.7,21.7-40.2,45.7-40.2c21.2,0,44.3,10.7,44.3,35.9v5.2 h-25.7v-2.6c0-11.3-9.6-16.2-18-16.2c-9.6,0-18.9,5-18.9,17.4v33c0,11.2,8.1,17.6,19.2,17.6c8.4,0,17.7-4.7,17.7-16.2v-2.6H458v5.3 C458,602,435.6,612.7,414.5,612.7z"/>
  </g>
  <linearGradient id="SVGID_1_" gradientUnits="userSpaceOnUse" x1="194.95" y1="501.53" x2="412.45" y2="719.03" gradientTransform="matrix(1 0 0 -1 0 841.87)">
    <stop offset="0" style="stop-color:#25316A"/>
    <stop offset="0.0605" style="stop-color:#293269"/>
    <stop offset="0.1216" style="stop-color:#343468"/>
    <stop offset="0.183" style="stop-color:#453764"/>
    <stop offset="0.2446" style="stop-color:#5B3C60"/>
    <stop offset="0.3064" style="stop-color:#764459"/>
    <stop offset="0.3684" style="stop-color:#964D4F"/>
    <stop offset="0.4293" style="stop-color:#BF5A3D"/>
    <stop offset="0.4872" style="stop-color:#F36C21"/>
    <stop offset="1" style="stop-color:#9C9C9C"/>
  </linearGradient>
  <path class="st1" d="M380,172.6L380,172.6V90.4l-76.3-44l-76.3,44v82.1v0.1l-71.1,41v88.1l76.3,44l71.1-41l71.1,41l76.3-44v-88.1 L380,172.6z M303.7,210.5l-60.7-35l60.7-35l60.7,35L303.7,210.5z M237.9,184.6l60.7,35v70l-60.7-35L237.9,184.6L237.9,184.6z M309,219.6l60.7-35v70l-60.7,35V219.6z M237.9,96.4l65.9-38l65.9,38v70.1l-65.9-38l-65.9,38V96.4z M166.8,295.7v-76.1l60.7-35v76 l66,38.1l-60.8,35.1L166.8,295.7z M440.7,295.7l-65.9,38L314,298.6l66-38.1v-76l60.7,35L440.7,295.7L440.7,295.7z"/>
  <rect x="153.8" y="643.4" class="st2" width="314.4" height="151.6"/>
</svg>